{"title":"Hoboken Hollow-AC3-XviD-DVDRip 2006","uid":6599845,"size":1568159188,"categoryP":"video","categoryS":"movies","magnet":"?xt=urn:btih:f67a030e2926bf7095ea47b8da3d331225fc6770&amp;dn=Hoboken+Hollow-AC3-XviD-DVDRip+2006&amp;tr=udp%3A%2F%2Ftracker.openbittorrent.com%3A80&amp;tr=udp%3A%2F%2Fopen.demonii.com%3A1337&amp;tr=udp%3A%2F%2Ftracker.coppersurfer.tk%3A6969&amp;tr=udp%3A%2F%2Fexodus.desync.com%3A6969","seeders":0,"leechers":1,"uploader":"FatFreddy31","files":-1,"time":1313160041,"description":"[img]http://img202.imageshack.us/img202/7426/affichehobokenhollow110.jpg[/img]\n &lt;a href=&quot;\nhttp://www.imdb.com/title/tt0455961/&quot; rel=&quot;nofollow&quot; target=&quot;_NEW&quot;&gt;\nhttp://www.imdb.com/title/tt0455961/&lt;/a&gt;\n &lt;a href=&quot;\nhttp://www.moviemeter.nl/film/36546&quot; rel=&quot;nofollow&quot; target=&quot;_NEW&quot;&gt;\nhttp://www.moviemeter.nl/film/36546&lt;/a&gt;\n\nSubs: Dutch.\n\nGeneral\nComplete name                    : Hoboken Hollow-AC3-XviD-DVDRip 2006.avi\nFormat                           : AVI\nFormat/Info                      : Audio Video Interleave\nFile size                        : 1.46 GiB\nDuration                         : 1h 34mn\nOverall bit rate                 : 2 210 Kbps\nWriting application              : VirtualDubMod 1.5.4.1 (build 2178/release)\nWriting library                  : VirtualDubMod build 2178/release\n\nVideo\nID                               : 0\nFormat                           : MPEG-4 Visual\nFormat profile                   : Simple@L3\nFormat settings, BVOP            : No\nFormat settings, QPel            : No\nFormat settings, GMC             : No warppoints\nFormat settings, Matrix          : Default (H.263)\nCodec ID                         : XVID\nCodec ID/Hint                    : XviD\nDuration                         : 1h 34mn\nBit rate                         : 1 752 Kbps\nWidth                            : 720 pixels\nHeight                           : 400 pixels\nDisplay aspect ratio             : 16:9\nFrame rate                       : 25.000 fps\nColor space                      : YUV\nChroma subsampling               : 4:2:0\nBit depth                        : 8 bits\nScan type                        : Progressive\nCompression mode                 : Lossy\nBits/(Pixel*Frame)               : 0.243\nStream size                      : 1.16 GiB (79%)\nWriting library                  : XviD 1.1.2 (UTC 2006-11-01)\n\nAudio\nID                               : 1\nFormat                           : AC-3\nFormat/Info                      : Audio Coding 3\nMode extension                   : CM (complete main)\nCodec ID                         : 2000\nDuration                         : 1h 34mn\nBit rate mode                    : Constant\nBit rate                         : 448 Kbps\nChannel(s)                       : 6 channels\nChannel positions                : Front: L C R, Side: L R, LFE\nSampling rate                    : 48.0 KHz\nBit depth                        : 16 bits\nCompression mode                 : Lossy\nStream size                      : 303 MiB (20%)\nAlignment                        : Split accross interleaves\nInterleave, duration             : 40 ms (1.00 video frame)\nInterleave, preload duration     : 500 ms\n\n[img]http://img29.imageshack.us/img29/3605/hobokenhollowac3xviddvd.jpg[/img]","torrent":{"xt":"urn:btih:f67a030e2926bf7095ea47b8da3d331225fc6770","amp;dn":"Hoboken+Hollow-AC3-XviD-DVDRip+2006","amp;tr":["udp%3A%2F%2Ftracker.openbittorrent.com%3A80","udp%3A%2F%2Fopen.demonii.com%3A1337","udp%3A%2F%2Ftracker.coppersurfer.tk%3A6969","udp%3A%2F%2Fexodus.desync.com%3A6969"],"infoHash":"f67a030e2926bf7095ea47b8da3d331225fc6770","infoHashBuffer":{"type":"Buffer","data":[246,122,3,14,41,38,191,112,149,234,71,184,218,61,51,18,37,252,103,112]},"announce":[],"urlList":[]}}